<svg width="98" height="52" viewBox="0 0 98 52" fill="none" xmlns="http://www.w3.org/2000/svg">
            <path fill-rule="evenodd" clip-rule="evenodd" d="M36.5703 0.592529C36.018 0.592529 35.5703 1.04024 35.5703 1.59253V5.86748C35.5703 6.41977 36.018 6.86748 36.5703 6.86748H72.8973C83.0242 6.86748 90.9777 14.6641 90.9777 24.757C90.9777 25.0425 91.2092 25.274 91.4948 25.274H96.757C97.0425 25.274 97.274 25.0425 97.274 24.757C97.274 11.2677 86.432 0.592529 72.8973 0.592529H36.5703Z" fill="#6B7B84" stroke="#80949F" stroke-width="0.5"/>
            <path fill-rule="evenodd" clip-rule="evenodd" d="M7.10682 25.7122C7.10682 25.4702 6.91059 25.2739 6.66853 25.2739H1.16436C0.922303 25.2739 0.726074 25.4702 0.726074 25.7122C0.726074 39.3616 10.9493 50.6311 24.1687 51.3686L66.5104 51.4064C67.063 51.4069 67.5113 50.959 67.5113 50.4064V45.8267C67.5113 45.2745 67.0635 44.8267 66.5113 44.8267H25.6265C15.3903 44.7984 7.10682 36.283 7.10682 25.7122Z" fill="#6B7B84" stroke="#80949F" stroke-width="0.5"/>
            <path fill-rule="evenodd" clip-rule="evenodd" d="M28.1415 39.7924C30.8803 39.7924 33.1616 39.2603 35.4149 38.1655L35.5704 38.0199V30.1855L34.7273 31.2649C33.1049 33.0378 30.9259 34.0137 28.4608 34.0137C23.8692 34.0137 19.2575 31.0459 19.2575 25.3738C19.2575 21.0874 22.4381 16.532 28.2993 16.532C29.4688 16.532 32.313 16.8085 34.7232 19.368L35.5704 20.4117V12.6127L35.4218 12.4653C33.1258 11.3147 30.7843 10.7554 28.1137 10.7554C23.5467 10.7554 19.9821 11.9577 17.1438 14.4289C15.3435 15.9777 12.3408 19.4485 12.3408 25.2923C12.3408 29.6131 13.8793 32.9875 17.1669 35.9144C20.2252 38.5962 23.6163 39.7924 28.1415 39.7924Z" fill="#6B7B84"/>
            <path d="M28.1415 39.7924C30.8803 39.7924 33.1616 39.2603 35.4149 38.1655L35.5704 38.0199V30.1855L34.7273 31.2649C33.1049 33.0378 30.9259 34.0137 28.4608 34.0137C23.8692 34.0137 19.2575 31.0459 19.2575 25.3738C19.2575 21.0874 22.4381 16.532 28.2993 16.532C29.4688 16.532 32.313 16.8085 34.7232 19.368L35.5704 20.4117V12.6127L35.4218 12.4653C33.1258 11.3147 30.7843 10.7554 28.1137 10.7554C23.5467 10.7554 19.9821 11.9577 17.1438 14.4289C15.3435 15.9777 12.3408 19.4485 12.3408 25.2923C12.3408 29.6131 13.8793 32.9875 17.1669 35.9144C20.2252 38.5962 23.6163 39.7924 28.1415 39.7924" stroke="#80949F" stroke-width="0.5"/>
            <path fill-rule="evenodd" clip-rule="evenodd" d="M47.9113 17.2887H49.2756C50.527 17.2887 51.9534 17.357 53.033 18.0928C53.5601 18.4694 54.4446 19.3411 54.4446 20.9244C54.4446 22.0945 53.9275 23.1436 53.0735 23.7982C51.9785 24.5931 50.6769 24.5475 49.6311 24.5475H47.9113V17.2887ZM50.977 29.8179C54.2084 29.8179 56.7377 28.8858 58.4943 27.1298C60.655 24.9735 60.9779 22.0073 60.9779 20.4435C60.9779 18.7703 60.5813 15.5066 57.9212 13.1435C55.7407 11.2328 53.4142 10.7554 50.1324 10.7554H41.3779V39.7924H48.0365V29.8179H50.977Z" fill="#6B7B84"/>
            <path d="M47.9113 17.2887V17.0387H47.6613V17.2887H47.9113ZM53.033 18.0928L53.1783 17.8894L53.1738 17.8863L53.033 18.0928ZM53.0735 23.7982L53.2204 24.0006L53.2256 23.9967L53.0735 23.7982ZM47.9113 24.5475H47.6613V24.7975H47.9113V24.5475ZM58.4943 27.1298L58.3177 26.9529L58.3175 26.953L58.4943 27.1298ZM57.9212 13.1435L58.0872 12.9566L58.086 12.9555L57.9212 13.1435ZM41.3779 10.7554V10.5054H41.1279V10.7554H41.3779ZM41.3779 39.7924H41.1279V40.0424H41.3779V39.7924ZM48.0365 39.7924V40.0424H48.2865V39.7924H48.0365ZM48.0365 29.8179V29.5679H47.7865V29.8179H48.0365ZM47.9113 17.5387H49.2756V17.0387H47.9113V17.5387ZM49.2756 17.5387C50.5328 17.5387 51.884 17.6122 52.8922 18.2994L53.1738 17.8863C52.0228 17.1018 50.5213 17.0387 49.2756 17.0387V17.5387ZM52.8877 18.2963C53.3753 18.6446 54.1946 19.4494 54.1946 20.9244H54.6946C54.6946 19.2328 53.7449 18.2942 53.1783 17.8894L52.8877 18.2963ZM54.1946 20.9244C54.1946 22.0204 53.7109 22.9947 52.9214 23.5998L53.2256 23.9967C54.1442 23.2925 54.6946 22.1686 54.6946 20.9244H54.1946ZM52.9266 23.5959C51.9093 24.3344 50.6973 24.2975 49.6311 24.2975V24.7975C50.6566 24.7975 52.0477 24.8518 53.2203 24.0006L52.9266 23.5959ZM49.6311 24.2975H47.9113V24.7975H49.6311V24.2975ZM48.1613 24.5475V17.2887H47.6613V24.5475H48.1613ZM50.977 30.0679C54.2568 30.0679 56.8563 29.1207 58.671 27.3066L58.3175 26.953C56.6191 28.6509 54.1599 29.5679 50.977 29.5679V30.0679ZM58.6709 27.3068C60.9029 25.0793 61.2279 22.0287 61.2279 20.4435H60.7279C60.7279 21.9859 60.407 24.8678 58.3177 26.9529L58.6709 27.3068ZM61.2279 20.4435C61.2279 18.7422 60.8263 15.3898 58.0872 12.9566L57.7552 13.3304C60.3363 15.6233 60.7279 18.7983 60.7279 20.4435H61.2279ZM58.086 12.9555C55.84 10.9874 53.4417 10.5054 50.1324 10.5054V11.0054C53.3867 11.0054 55.6415 11.4782 57.7564 13.3315L58.086 12.9555ZM50.1324 10.5054H41.3779V11.0054H50.1324V10.5054ZM41.1279 10.7554V39.7924H41.6279V10.7554H41.1279ZM41.3779 40.0424H48.0365V39.5424H41.3779V40.0424ZM48.2865 39.7924V29.8179H47.7865V39.7924H48.2865ZM48.0365 30.0679H50.977V29.5679H48.0365V30.0679Z" fill="#80949F"/>
            <path fill-rule="evenodd" clip-rule="evenodd" d="M80.953 24.4687C79.5053 23.1861 77.4846 22.4425 75.1911 21.6713C73.5569 21.1027 72.6565 20.7894 72.0562 20.2421C71.5824 19.8399 71.3712 19.4033 71.3712 18.8262C71.3712 17.5622 72.2301 16.2113 74.6414 16.2113C76.2801 16.2113 77.6521 16.912 78.7197 18.293L79.1435 18.8414L82.6597 14.3656L82.3392 14.0445C80.1886 11.8924 77.3548 10.7554 74.1439 10.7554C67.6657 10.7554 64.7658 14.9699 64.7658 19.1468C64.7658 21.3882 65.5651 23.196 67.1367 24.5175C68.5437 25.7234 70.2595 26.3991 71.9054 26.9507L72.0914 27.0123C73.553 27.4954 75.0646 27.9954 75.9674 28.8034C76.5955 29.3805 76.8754 30.0076 76.8754 30.8367C76.8754 32.7368 75.379 34.0137 73.152 34.0137C71.3916 34.0137 69.0735 33.1508 67.8471 30.7296L67.5263 30.0953L63.1558 34.1411L63.4135 34.5056C64.8079 36.4801 67.9545 39.7924 73.3594 39.7924C79.3191 39.7924 83.4817 35.9608 83.4817 30.4751C83.4817 27.3374 82.1051 25.4752 80.953 24.4687Z" fill="#6B7B84"/>
            <path d="M80.953 24.4687C79.5053 23.1861 77.4846 22.4425 75.1911 21.6713C73.5569 21.1027 72.6565 20.7894 72.0562 20.2421C71.5824 19.8399 71.3712 19.4033 71.3712 18.8262C71.3712 17.5622 72.2301 16.2113 74.6414 16.2113C76.2801 16.2113 77.6521 16.912 78.7197 18.293L79.1435 18.8414L82.6597 14.3656L82.3392 14.0445C80.1886 11.8924 77.3548 10.7554 74.1439 10.7554C67.6657 10.7554 64.7658 14.9699 64.7658 19.1468C64.7658 21.3882 65.5651 23.196 67.1367 24.5175C68.5437 25.7234 70.2595 26.3991 71.9054 26.9507L72.0914 27.0123C73.553 27.4954 75.0646 27.9954 75.9674 28.8034C76.5955 29.3805 76.8754 30.0076 76.8754 30.8367C76.8754 32.7368 75.379 34.0137 73.152 34.0137C71.3916 34.0137 69.0735 33.1508 67.8471 30.7296L67.5263 30.0953L63.1558 34.1411L63.4135 34.5056C64.8079 36.4801 67.9545 39.7924 73.3594 39.7924C79.3191 39.7924 83.4817 35.9608 83.4817 30.4751C83.4817 27.3374 82.1051 25.4752 80.953 24.4687" stroke="#80949F" stroke-width="0.5"/>
            </svg>